<?xml version="1.0" standalone="no"?>
<!DOCTYPE svg PUBLIC "-//W3C//DTD SVG 20010904//EN"
 "http://www.w3.org/TR/2001/REC-SVG-20010904/DTD/svg10.dtd">
<svg version="1.0" xmlns="http://www.w3.org/2000/svg"
 width="900.000000pt" height="360.000000pt" viewBox="0 0 900.000000 360.000000"
 preserveAspectRatio="xMidYMid meet">

<g transform="translate(0.000000,360.000000) scale(0.100000,-0.100000)"
fill="#000000" stroke="none">
<path d="M462 3209 c-64 -32 -107 -76 -138 -144 -18 -38 -19 -92 -22 -1214 -3
-1281 -4 -1243 54 -1331 30 -45 100 -96 155 -110 24 -7 1400 -9 3985 -8 l3949
3 48 25 c57 29 102 76 131 139 21 46 21 47 21 1251 l0 1205 -23 50 c-28 61
-62 98 -122 133 l-45 27 -3966 3 -3966 2 -61 -31z m1235 -406 c-7 -91 -30
-154 -84 -236 -70 -106 -195 -187 -288 -187 -42 0 -42 5 -19 118 37 179 141
301 302 353 95 30 96 30 89 -48z m2333 -303 l0 -270 -40 0 -40 0 0 270 0 270
40 0 40 0 0 -270z m648 162 l3 -102 30 22 c41 31 116 31 155 2 55 -40 69 -70
72 -152 3 -66 0 -83 -21 -122 -45 -84 -139 -114 -211 -65 -44 30 -46 30 -46 5
0 -16 -7 -20 -35 -20 l-35 0 0 263 c0 145 3 267 7 271 4 4 23 6 43 4 l35 -3 3
-103z m452 -162 l0 -270 -40 0 -40 0 0 270 0 270 40 0 40 0 0 -270z m2240 165
c0 -58 3 -105 6 -105 3 0 17 9 31 20 63 50 150 30 183 -42 16 -36 20 -66 20
-175 l0 -133 -39 0 -39 0 -4 134 c-2 115 -6 137 -22 155 -27 30 -76 28 -107
-5 -22 -24 -24 -34 -27 -155 l-4 -129 -39 0 -39 0 0 270 0 270 40 0 40 0 0
-105z m-3572 83 c21 -21 15 -67 -12 -79 -34 -16 -66 3 -66 39 0 33 16 52 45
52 12 0 26 -5 33 -12z m-1139 -16 c7 -13 90 -271 157 -485 5 -16 0 -18 -37
-15 l-42 3 -25 73 -24 72 -82 0 -83 0 -22 -75 -22 -75 -39 0 c-22 0 -40 3 -40
8 0 16 152 488 161 498 15 19 87 16 98 -4z m4431 -87 l0 -45 45 0 c43 0 45 -1
45 -30 0 -29 -2 -30 -45 -30 l-45 0 0 -113 c0 -123 5 -137 52 -137 24 0 28 -4
28 -29 0 -31 -14 -41 -56 -41 -33 0 -79 25 -90 47 -5 10 -11 74 -14 143 l-5
125 -28 3 c-24 3 -28 7 -25 30 2 18 10 28 28 32 19 4 26 13 28 37 2 24 10 34
30 42 47 17 52 14 52 -34z m-3584 -54 c61 -28 74 -69 74 -231 l0 -130 -35 0
c-29 0 -35 4 -35 20 0 20 0 20 -29 -1 -103 -76 -239 18 -185 127 26 52 59 73
137 87 74 12 82 23 42 62 -27 27 -63 32 -114 14 -36 -13 -36 -12 -45 17 -5 17
-1 24 21 32 67 26 116 27 169 3z m887 -6 c47 -30 57 -70 57 -219 l0 -136 -35
0 c-24 0 -35 5 -35 15 0 19 2 19 -45 -5 -47 -24 -86 -25 -125 -5 -38 20 -50
43 -50 100 0 40 5 52 33 80 31 31 100 55 157 55 28 0 25 26 -6 57 -22 22 -32
25 -67 20 -23 -3 -52 -9 -63 -12 -17 -5 -23 -2 -27 16 -7 28 -8 27 40 45 47
18 132 12 166 -11z m1087 7 c44 -22 76 -69 85 -127 10 -71 2 -75 -131 -75 -73
0 -114 -4 -114 -10 0 -21 31 -70 51 -81 12 -6 52 -9 92 -7 71 3 72 3 75 -23 4
-32 -10 -38 -93 -45 -50 -5 -68 -2 -105 18 -80 41 -115 128 -91 225 16 63 46
102 95 124 52 23 91 24 136 1z m650 -4 c54 -28 87 -74 96 -136 14 -91 -28
-180 -100 -213 -77 -35 -159 -19 -209 40 -85 101 -47 275 68 316 57 20 94 18
145 -7z m451 7 c59 -31 69 -64 69 -222 l0 -143 -40 0 -40 0 0 132 c0 121 -2
134 -22 155 -29 31 -72 30 -103 -2 -24 -23 -25 -29 -25 -155 l0 -130 -40 0
-40 0 -1 170 c-1 94 -2 176 -3 183 -1 7 12 12 34 12 28 0 35 -4 40 -24 5 -22
6 -23 20 -6 18 22 67 44 98 45 13 0 36 -7 53 -15z m1353 1 c45 -19 73 -58 86
-120 18 -86 16 -87 -117 -85 -63 1 -117 -1 -120 -5 -10 -10 19 -67 43 -83 17
-11 43 -14 96 -12 70 4 73 3 76 -20 5 -30 -9 -38 -76 -47 -95 -12 -169 25
-203 100 -72 158 67 334 215 272z m-4935 -141 c36 -114 46 -135 52 -115 4 14
24 78 44 143 l36 117 40 0 c22 0 39 -5 39 -11 0 -9 -69 -197 -126 -342 -5 -14
-16 -17 -47 -15 l-40 3 -63 175 c-35 96 -63 179 -64 183 0 5 19 7 42 5 l42 -3
45 -140z m806 -40 l0 -180 -42 -3 -43 -3 0 186 0 186 43 -3 42 -3 0 -180z
m-1970 -27 c68 -17 152 -68 206 -124 l51 -54 -71 -76 c-43 -47 -83 -102 -103
-142 -29 -61 -33 -77 -36 -180 -4 -99 -1 -121 18 -175 39 -106 97 -175 195
-233 56 -32 56 -31 -14 -179 -66 -139 -142 -255 -208 -315 -79 -72 -106 -84
-188 -85 -61 0 -81 5 -155 40 -80 37 -91 39 -180 40 -90 0 -101 -2 -197 -42
-116 -49 -172 -54 -241 -23 -166 75 -371 423 -428 728 -25 133 -16 362 19 460
33 96 80 171 144 235 67 66 129 101 216 123 95 23 178 15 307 -30 135 -46 177
-46 307 -1 156 54 242 62 358 33z m3744 -399 c23 -7 45 -19 48 -26 4 -9 -21
-106 -31 -120 -1 -1 -26 7 -56 17 -70 25 -179 26 -227 3 -70 -33 -94 -119 -50
-184 17 -26 54 -50 151 -99 71 -36 147 -80 169 -99 55 -47 87 -120 87 -197 0
-141 -74 -241 -208 -279 -109 -32 -306 -16 -379 30 -20 14 -21 16 -6 67 8 29
16 58 18 65 3 9 21 4 62 -14 41 -19 80 -28 136 -31 96 -6 147 9 188 55 24 28
29 42 29 87 0 93 -30 121 -230 210 -87 39 -171 123 -189 189 -37 131 28 262
156 319 81 36 228 39 332 7z m-2600 -221 c41 -128 112 -350 158 -493 45 -143
83 -263 83 -267 0 -5 -36 -8 -80 -8 -66 0 -81 3 -88 18 -5 9 -26 74 -48 144
l-39 128 -162 0 -162 0 -9 -32 c-5 -18 -24 -84 -42 -145 l-33 -113 -79 0 c-58
0 -78 3 -78 13 0 8 41 141 90 298 50 156 118 370 151 474 33 105 62 196 64
203 3 8 33 12 102 12 l98 0 74 -232z m2991 36 l0 -84 85 0 85 0 0 -60 0 -60
-85 0 -85 0 0 -205 c0 -264 5 -275 111 -275 l49 0 0 -59 c0 -70 -3 -72 -109
-73 -94 -1 -146 27 -181 97 -24 48 -25 58 -28 283 l-4 232 -49 0 -49 0 0 60 0
60 50 0 49 0 3 67 3 67 70 22 c39 12 73 20 78 17 4 -2 7 -42 7 -89z m1903 -96
c57 -25 101 -73 135 -147 21 -46 26 -72 26 -146 l1 -90 -239 -3 -238 -2 7 -38
c10 -59 38 -105 83 -136 37 -27 52 -30 130 -34 55 -2 106 2 140 11 53 14 53
14 63 -10 5 -14 10 -38 12 -55 3 -47 -45 -62 -213 -62 -118 -1 -141 2 -181 20
-63 29 -126 94 -156 161 -31 67 -41 190 -24 275 47 224 254 341 454 256z
m-4056 3 c111 -51 183 -187 183 -346 0 -162 -71 -295 -188 -352 -103 -51 -243
-34 -307 37 l-20 22 -5 -183 -5 -184 -75 0 -75 0 -3 508 -2 508 67 -3 68 -3 5
-54 5 -55 27 36 c43 57 117 88 207 88 53 0 89 -6 118 -19z m792 -7 c58 -29
116 -98 146 -174 22 -57 31 -200 16 -268 -25 -116 -88 -204 -179 -249 -103
-51 -243 -34 -307 37 l-20 22 -5 -183 -5 -184 -54 -3 c-30 -2 -65 -1 -78 3
l-23 5 0 506 0 505 68 -3 67 -3 3 -47 c2 -27 5 -48 8 -48 3 0 21 16 41 36 54
54 105 74 194 74 61 0 85 -5 128 -26z m2099 -9 c65 -35 107 -81 141 -155 23
-50 26 -67 26 -175 0 -111 -2 -125 -29 -183 -71 -153 -238 -231 -404 -188
-157 40 -252 176 -252 361 0 141 55 256 154 323 67 45 97 52 211 49 89 -2 106
-6 153 -32z m652 -40 l0 -75 -48 0 c-64 0 -111 -27 -142 -81 -24 -43 -25 -50
-28 -271 l-3 -228 -80 0 -79 0 0 360 0 360 70 0 69 0 3 -67 3 -66 32 51 c38
61 88 91 156 92 l47 0 0 -75z"/>
<path d="M4705 2514 c-22 -24 -25 -36 -25 -101 0 -65 3 -77 25 -98 44 -45 116
-29 141 30 27 65 9 161 -34 184 -37 20 -81 13 -107 -15z"/>
<path d="M2590 2619 c-16 -61 -42 -152 -47 -166 -4 -10 12 -13 61 -13 36 0 66
3 66 8 0 11 -59 205 -64 210 -3 2 -10 -16 -16 -39z"/>
<path d="M3405 2398 c-28 -16 -35 -28 -35 -65 0 -55 58 -71 104 -28 20 18 26
34 26 65 0 40 0 40 -37 40 -21 0 -47 -6 -58 -12z"/>
<path d="M4266 2389 c-30 -24 -35 -69 -10 -93 19 -20 37 -20 73 -1 33 16 41
33 41 81 0 33 -1 34 -39 34 -24 0 -48 -8 -65 -21z"/>
<path d="M5367 2539 c-21 -12 -50 -66 -42 -79 8 -12 152 -13 159 -1 9 14 -15
71 -34 81 -24 13 -60 12 -83 -1z"/>
<path d="M6012 2540 c-27 -11 -61 -82 -62 -125 0 -17 10 -51 23 -75 28 -58 73
-74 115 -43 42 31 53 61 49 132 -3 57 -6 67 -35 92 -34 30 -52 34 -90 19z"/>
<path d="M7827 2539 c-21 -12 -50 -66 -42 -79 3 -6 40 -10 81 -10 84 0 95 9
70 58 -21 42 -68 55 -109 31z"/>
<path d="M2780 1788 c-7 -35 -34 -132 -60 -215 l-47 -153 129 0 c70 0 128 3
128 6 0 3 -20 72 -45 152 -25 81 -53 175 -62 209 -8 35 -19 63 -23 63 -4 0
-13 -28 -20 -62z"/>
<path d="M7687 1616 c-21 -8 -48 -22 -59 -33 -21 -18 -68 -108 -68 -130 0 -10
40 -13 166 -13 l167 0 -7 42 c-17 107 -107 167 -199 134z"/>
<path d="M3609 1601 c-48 -16 -78 -43 -104 -94 -22 -45 -25 -63 -25 -156 0
-120 17 -170 72 -211 41 -30 119 -38 169 -17 142 59 158 374 24 457 -37 23
-100 32 -136 21z"/>
<path d="M4389 1601 c-48 -16 -78 -43 -104 -94 -22 -45 -25 -63 -24 -151 1
-106 10 -145 45 -189 30 -38 72 -57 122 -57 61 0 106 22 140 69 83 114 62 331
-37 396 -40 27 -103 38 -142 26z"/>
<path d="M6483 1609 c-144 -42 -182 -333 -59 -456 86 -86 196 -63 259 55 57
105 45 268 -26 348 -50 58 -102 74 -174 53z"/>
</g>
</svg>
