<?xml version="1.0" standalone="no"?>
<!DOCTYPE svg PUBLIC "-//W3C//DTD SVG 20010904//EN"
 "http://www.w3.org/TR/2001/REC-SVG-20010904/DTD/svg10.dtd">
<svg version="1.0" xmlns="http://www.w3.org/2000/svg"
 width="900.000000pt" height="322.000000pt" viewBox="0 0 900.000000 322.000000"
 preserveAspectRatio="xMidYMid meet">

<g transform="translate(0.000000,322.000000) scale(0.100000,-0.100000)"
fill="#000000" stroke="none">
<path d="M496 3019 c-171 -25 -314 -161 -346 -328 -14 -73 -14 -2099 0 -2172
32 -170 174 -301 355 -329 49 -7 1280 -10 4040 -8 l3970 3 61 21 c118 41 209
127 256 241 l23 58 0 1105 0 1105 -23 58 c-45 111 -135 197 -247 235 -47 16
-288 17 -4040 18 -2210 1 -4016 -2 -4049 -7z m1062 -443 c76 -40 94 -90 96
-269 l1 -142 -25 -3 -25 -3 0 128 c-1 201 -26 243 -147 243 -124 0 -240 -56
-270 -130 -6 -14 -13 -95 -17 -180 -6 -153 -6 -155 -29 -158 l-24 -4 4 169 c4
192 17 238 83 288 77 60 287 96 353 61z m274 -137 c28 -15 46 -64 54 -152 7
-74 6 -77 -15 -77 -29 0 -37 3 -33 15 2 6 1 39 -3 73 -9 80 -28 102 -90 102
-41 0 -45 2 -45 25 0 24 3 25 56 25 30 0 64 -5 76 -11z m-280 -54 c4 -21 -1
-29 -32 -46 -47 -27 -59 -52 -67 -145 -6 -71 -7 -74 -31 -74 l-25 0 5 83 c7
110 39 168 108 196 36 14 37 14 42 -14z m5352 -51 c9 -4 16 -18 16 -33 0 -25
-3 -27 -35 -23 -55 7 -75 -18 -75 -90 l0 -58 45 0 c41 0 45 -2 45 -25 0 -23
-4 -25 -45 -25 l-45 0 0 -175 0 -175 -35 0 -35 0 0 175 0 175 -35 0 c-31 0
-35 3 -35 25 0 22 4 25 34 25 l33 0 5 63 c3 35 13 75 22 89 28 43 97 69 140
52z m-1804 -304 l0 -300 -35 0 -35 0 0 293 c0 162 3 297 7 300 3 4 19 7 35 7
l28 0 0 -300z m1320 0 l0 -300 -35 0 c-33 0 -35 2 -35 32 l0 32 -27 -26 c-82
-78 -201 -56 -251 44 -52 104 -16 265 69 308 65 34 142 28 187 -13 l22 -20 0
121 0 122 35 0 35 0 0 -300z m-3154 255 c127 -23 193 -113 194 -260 0 -130
-54 -217 -165 -266 -39 -17 -75 -23 -167 -27 l-118 -5 0 280 c0 154 2 282 5
285 7 7 206 2 251 -7z m-984 -134 l133 -49 3 -690 c2 -650 1 -690 -15 -697
-10 -3 -73 -26 -140 -51 l-122 -44 -698 140 c-384 77 -699 140 -700 140 -2 0
-2 230 -1 511 l3 512 685 138 c377 75 692 138 702 138 9 1 76 -21 150 -48z
m1515 -16 c12 -3 36 -17 54 -32 92 -78 93 -258 0 -336 -64 -54 -171 -60 -242
-13 -51 35 -79 96 -79 177 1 158 106 239 267 204z m1079 -26 c36 -33 44 -78
44 -236 l0 -143 -30 0 -30 0 0 123 c0 141 -10 188 -47 217 -39 30 -77 26 -121
-14 l-37 -34 -3 -146 -4 -146 -29 0 -29 0 0 200 0 200 30 0 c26 0 30 -4 30
-26 l0 -26 31 26 c17 14 43 29 57 32 15 3 32 7 37 8 22 6 78 -14 101 -35z
m614 12 c129 -65 127 -307 -3 -374 -152 -78 -308 28 -295 201 7 104 53 164
145 187 57 14 105 10 153 -14z m418 0 c44 -24 52 -58 52 -231 l0 -160 -30 0
c-27 0 -30 3 -30 33 0 32 0 32 -18 11 -22 -28 -74 -54 -107 -54 -38 0 -90 25
-109 51 -23 34 -21 110 5 143 29 37 48 45 141 61 44 8 83 17 86 19 9 10 -9 56
-30 76 -28 26 -82 26 -133 0 -51 -26 -55 -25 -55 9 0 32 22 46 100 59 48 9 91
3 128 -17z m1579 8 c121 -39 152 -246 53 -350 -107 -112 -298 -57 -330 96 -38
183 102 312 277 254z m485 -28 l26 -29 27 28 c63 66 189 52 221 -25 10 -25 14
-78 14 -190 l0 -155 -30 0 -30 0 0 138 c0 110 -3 144 -18 172 -32 65 -106 66
-149 1 -21 -31 -23 -45 -23 -172 l0 -139 -35 0 -35 0 0 145 c0 154 -7 186 -47
204 -31 14 -46 14 -78 -1 -46 -21 -55 -53 -55 -208 l0 -140 -35 0 -35 0 0 200
0 200 36 0 c33 0 36 -2 32 -25 -3 -14 -1 -25 3 -25 5 0 9 4 9 10 0 14 46 42
83 50 45 9 87 -5 119 -39z m-802 6 c0 -32 -2 -33 -31 -29 -17 2 -41 -1 -54 -8
-44 -23 -55 -66 -55 -209 l0 -131 -35 0 -35 0 0 200 0 200 36 0 c35 0 36 -1
31 -30 -8 -36 5 -39 22 -6 16 29 45 44 89 45 30 1 32 -1 32 -32z m-3134 -4 c3
-16 23 -88 43 -162 l37 -133 41 133 c23 74 45 146 49 162 5 22 11 27 39 27
l32 0 33 -117 c18 -65 38 -138 45 -163 l12 -45 10 35 c5 19 25 92 44 162 l34
128 34 0 c28 0 32 -3 26 -17 -4 -10 -27 -85 -51 -168 -70 -235 -61 -215 -98
-215 l-33 0 -28 98 c-56 196 -62 215 -67 206 -2 -5 -24 -75 -49 -156 l-44
-148 -31 0 c-38 0 -31 -13 -95 200 -27 91 -52 173 -55 183 -4 14 1 17 30 17
31 0 37 -4 42 -27z m679 -1073 l0 -295 -32 -3 c-31 -3 -33 -1 -33 28 l0 32
-34 -30 c-41 -36 -98 -48 -154 -32 -142 38 -161 298 -28 388 52 35 141 33 185
-4 l31 -26 0 122 0 121 33 -3 32 -3 0 -295z m-907 281 c8 -5 12 -21 10 -37 -2
-24 -8 -29 -35 -32 -28 -3 -33 1 -39 23 -10 42 27 70 64 46z m2830 -23 c12
-10 18 -68 6 -68 -3 0 -28 7 -55 16 -83 27 -159 -7 -161 -73 -1 -47 17 -68
111 -128 110 -69 136 -104 129 -176 -6 -54 -30 -89 -83 -117 -35 -19 -155 -21
-197 -4 -24 10 -28 17 -28 51 l0 40 36 -21 c54 -32 144 -31 178 1 28 26 34 68
15 102 -6 11 -48 44 -93 74 -112 72 -136 102 -136 170 0 80 49 132 135 145 52
7 127 1 143 -12z m-3620 -5 c5 -10 26 -79 47 -153 20 -74 45 -164 56 -199 10
-35 19 -72 19 -82 0 -24 20 -25 20 -1 1 9 29 114 63 232 l63 215 30 3 c30 3
31 2 53 -75 50 -175 60 -212 82 -300 13 -51 26 -93 29 -93 3 0 12 26 19 58 7
31 34 136 59 232 43 159 49 175 70 178 51 8 51 2 -4 -195 -29 -103 -66 -230
-80 -280 l-27 -93 -38 0 -37 0 -20 68 c-11 37 -40 138 -64 225 l-44 158 -63
-225 -63 -226 -39 0 c-22 0 -39 2 -39 4 0 3 -15 56 -34 118 -55 182 -126 428
-126 438 0 18 59 11 68 -7z m3812 -88 l0 -55 50 0 c49 0 50 -1 50 -30 0 -29
-1 -30 -50 -30 l-50 0 0 -134 c0 -153 7 -171 67 -164 30 4 33 2 33 -23 0 -21
-6 -28 -30 -32 -45 -10 -88 3 -110 31 -18 22 -20 41 -20 173 l0 149 -39 0
c-37 0 -40 2 -38 28 2 24 7 27 40 30 l37 3 0 49 c0 38 4 50 18 53 40 11 42 8
42 -48z m-1700 -85 c87 -62 97 -251 18 -327 -49 -45 -76 -56 -143 -57 -76 0
-124 22 -162 76 -23 34 -28 54 -31 114 -5 87 19 149 73 190 60 46 183 48 245
4z m2163 -3 c103 -79 94 -282 -15 -355 -34 -22 -51 -26 -107 -26 -96 0 -152
35 -186 116 -37 91 -2 224 73 270 69 43 176 41 235 -5z m-3483 -162 c0 -107 1
-198 3 -202 1 -5 -13 -9 -30 -11 l-33 -3 0 205 0 206 30 0 30 0 0 -195z m180
163 l0 -31 23 20 c36 33 63 43 115 43 35 0 57 -6 77 -22 47 -37 55 -72 55
-238 l0 -151 -31 3 -32 3 2 117 c1 64 -3 135 -9 157 -23 87 -92 107 -158 47
l-37 -34 -3 -147 -3 -146 -30 3 -30 3 0 198 c0 108 1 199 1 202 0 3 14 5 30 5
27 0 30 -3 30 -32z m1338 -45 c12 -43 33 -118 46 -168 13 -49 26 -83 29 -75 3
8 10 31 16 50 5 19 26 88 46 153 35 113 37 117 64 117 24 0 30 -5 39 -37 31
-118 73 -270 78 -283 5 -13 17 28 78 265 12 46 16 50 46 53 39 4 41 20 -33
-228 l-53 -175 -32 -3 c-38 -4 -35 -9 -88 176 -27 92 -41 128 -46 115 -4 -10
-26 -79 -50 -153 -43 -135 -43 -135 -75 -138 -18 -2 -33 -1 -33 1 0 3 -61 205
-117 390 -4 14 1 17 29 17 34 0 34 0 56 -77z m726 71 c10 -4 16 -18 16 -39 0
-34 0 -34 -27 -19 -58 29 -133 7 -133 -40 0 -33 19 -52 83 -82 71 -33 97 -64
97 -116 0 -84 -106 -138 -205 -106 -35 11 -40 17 -43 46 -4 37 -4 37 34 17 34
-17 97 -20 125 -5 24 13 25 61 2 82 -10 9 -40 27 -68 41 -71 35 -90 60 -90
114 0 39 5 49 37 79 34 31 43 34 97 34 33 0 66 -3 75 -6z m1467 -39 c3 -22 7
-33 8 -23 2 28 59 68 97 68 32 0 34 -2 34 -33 0 -32 -1 -33 -35 -29 -25 3 -42
-1 -57 -14 -38 -35 -48 -76 -48 -209 l0 -125 -30 0 -30 0 0 206 0 205 28 -3
c23 -3 28 -9 33 -43z m449 28 c39 -23 70 -83 77 -148 l6 -55 -141 0 c-77 0
-143 -3 -145 -7 -2 -5 1 -26 7 -48 22 -78 124 -110 209 -66 l37 19 0 -28 c0
-35 -14 -46 -75 -60 -155 -35 -255 55 -243 219 6 80 31 129 86 166 45 31 137
35 182 8z"/>
<path d="M6179 2073 c-80 -49 -90 -207 -18 -267 56 -47 147 -26 175 39 19 45
18 148 -1 185 -28 55 -104 76 -156 43z"/>
<path d="M3080 2013 l0 -226 80 6 c153 10 219 69 228 202 6 89 -14 151 -58
189 -40 33 -81 45 -172 50 l-78 4 0 -225z"/>
<path d="M1548 1762 l-168 -25 0 -149 0 -148 200 0 200 0 0 175 0 175 -32 -1
c-18 -1 -108 -13 -200 -27z"/>
<path d="M1235 1718 c-33 -5 -91 -14 -128 -19 l-68 -11 3 -121 3 -122 153 -3
152 -3 0 146 0 145 -27 -1 c-16 -1 -55 -6 -88 -11z"/>
<path d="M1042 1288 l3 -132 125 -18 c69 -9 137 -19 153 -22 l27 -5 0 154 0
155 -155 0 -156 0 3 -132z"/>
<path d="M1380 1266 l0 -154 68 -10 c37 -6 117 -18 177 -27 61 -9 120 -18 133
-21 l22 -4 0 185 0 185 -200 0 -200 0 0 -154z"/>
<path d="M3675 2080 c-49 -20 -85 -87 -85 -155 1 -47 35 -112 69 -129 39 -20
110 -20 139 0 54 38 73 151 38 226 -27 56 -102 83 -161 58z"/>
<path d="M5323 2070 c-49 -30 -66 -71 -61 -153 4 -65 6 -71 41 -103 31 -28 44
-34 83 -34 54 0 97 23 114 59 19 42 23 122 8 166 -25 75 -116 108 -185 65z"/>
<path d="M5785 1919 c-101 -23 -99 -139 3 -139 63 0 112 52 112 120 0 28 -2
30 -37 29 -21 -1 -56 -5 -78 -10z"/>
<path d="M7342 2074 c-87 -45 -97 -209 -17 -272 34 -27 102 -29 146 -6 74 38
81 205 11 268 -29 26 -99 31 -140 10z"/>
<path d="M4482 1078 c-53 -26 -87 -138 -63 -211 34 -103 170 -118 215 -23 21
44 21 147 1 186 -27 52 -98 74 -153 48z"/>
<path d="M4955 1080 c-76 -31 -104 -171 -51 -252 36 -56 144 -64 193 -15 44
43 52 150 16 219 -24 49 -101 72 -158 48z"/>
<path d="M7102 1070 c-46 -28 -65 -79 -60 -158 4 -59 7 -67 41 -98 31 -29 44
-34 86 -34 104 0 160 108 118 230 -25 71 -117 101 -185 60z"/>
<path d="M7832 1076 c-28 -15 -62 -64 -62 -88 0 -16 12 -18 105 -18 99 0 105
1 105 20 0 29 -27 78 -49 90 -26 14 -71 12 -99 -4z"/>
</g>
</svg>
